<?xml version="1.0" encoding="utf-8"?>
<svg viewBox="95.4928 159.8039 309.2053 92.362" width="309.2053" height="92.362" xmlns="http://www.w3.org/2000/svg">
  <g transform="matrix(0.7817689776420593, 0, 0, 0.7817689776420593, 95.49284300813574, 159.80375347680717)">
    <svg viewBox="0 0 395.52 118.14589241125525" height="118.14589241125525" width="395.52">
      <g id="textblocktransform">
        <svg viewBox="0 0 395.52 118.14589241125525" height="118.14589241125525" width="395.52" id="textblock">
          <g>
            <svg viewBox="0 0 395.52 118.14589241125525" height="118.14589241125525" width="395.52">
              <g transform="matrix(1,0,0,1,0,0)">
                <svg width="395.52" viewBox="-1.3467047214508057 -14.344593048095703 216.21177673339844 64.58468627929688" height="118.14589241125525" data-palette-color="#ff4057">
                  <path d="M20.513 2.157v0c-0.058 0.156-0.133 0.313-0.227 0.47-0.096 0.164-0.203 0.309-0.321 0.436v0c-0.547 0.615-1.206 1.054-1.978 1.316-0.768 0.271-1.558 0.256-2.372-0.044v0c-1.213-0.448-1.814-1.363-1.801-2.744v0c-0.005-0.179 0.03-0.369 0.104-0.569 0.074-0.2 0.136-0.415 0.185-0.646v0l0.502-1.36c0.099-0.461 0.117-0.845 0.053-1.153-0.066-0.302-0.287-0.522-0.662-0.661v0c-0.525-0.194-1.155-0.046-1.891 0.443-0.729 0.491-1.441 1.131-2.137 1.918-0.702 0.785-1.339 1.624-1.909 2.515-0.575 0.882-0.971 1.62-1.191 2.214v0c-0.173 0.469-0.352 1.05-0.536 1.742-0.185 0.692-0.302 1.385-0.351 2.077-0.041 0.688 0.02 1.322 0.182 1.901 0.159 0.57 0.504 0.954 1.036 1.15v0c0.532 0.196 1.084 0.212 1.657 0.047 0.57-0.159 1.155-0.376 1.754-0.653v0c0.543-0.219 1.13-0.443 1.762-0.671 0.632-0.229 1.26-0.228 1.885 0.003v0c0.782 0.289 1.294 0.798 1.537 1.527 0.245 0.723 0.234 1.444-0.032 2.163v0c-0.393 1.063-1.04 1.95-1.942 2.662-0.896 0.714-1.89 1.249-2.981 1.607-1.091 0.357-2.221 0.541-3.39 0.55-1.177 0.013-2.232-0.153-3.164-0.497v0c-1.682-0.621-2.952-1.57-3.81-2.846-0.858-1.276-1.408-2.691-1.652-4.245-0.235-1.558-0.226-3.161 0.027-4.808 0.251-1.641 0.629-3.147 1.135-4.517v0c0.587-1.589 1.442-3.231 2.565-4.926 1.117-1.698 2.423-3.174 3.916-4.428 1.493-1.254 3.143-2.151 4.949-2.692 1.81-0.533 3.697-0.436 5.661 0.288v0c1.22 0.45 2.175 1.105 2.867 1.965 0.694 0.853 1.169 1.818 1.426 2.893 0.259 1.069 0.343 2.188 0.253 3.356-0.099 1.172-0.337 2.27-0.716 3.296v0c-0.058 0.156-0.115 0.313-0.173 0.469-0.058 0.156-0.131 0.307-0.22 0.452zM42.909 14.934v0c-0.153 0.546-0.39 1.352-0.71 2.418-0.314 1.068-0.676 2.175-1.087 3.32-0.405 1.147-0.817 2.222-1.238 3.225-0.42 1.004-0.793 1.716-1.119 2.137v0c-0.428 0.538-0.913 0.973-1.457 1.305-0.537 0.334-1.158 0.402-1.864 0.204v0c-1.091-0.306-1.753-0.959-1.985-1.959-0.238-1.002-0.258-2.164-0.06-3.486 0.198-1.322 0.525-2.733 0.98-4.232 0.454-1.493 0.827-2.887 1.122-4.183 0.296-1.302 0.42-2.423 0.372-3.364-0.046-0.948-0.45-1.529-1.214-1.743v0c-1.059-0.297-1.915-0.357-2.567-0.18-0.654 0.183-1.179 0.514-1.576 0.991-0.389 0.473-0.708 1.055-0.957 1.746-0.243 0.693-0.504 1.413-0.783 2.159v0c-0.271 0.72-0.598 1.698-0.979 2.935-0.383 1.243-0.874 2.435-1.471 3.575-0.599 1.148-1.317 2.078-2.154 2.792-0.837 0.714-1.834 0.908-2.989 0.584v0c-0.7-0.196-1.191-0.629-1.475-1.296-0.277-0.666-0.423-1.465-0.438-2.398-0.014-0.939 0.073-1.95 0.259-3.033 0.182-1.092 0.407-2.143 0.677-3.154 0.264-1.013 0.522-1.934 0.776-2.763 0.245-0.824 0.426-1.445 0.543-1.863v0c0.18-0.642 0.502-1.691 0.966-3.146 0.457-1.457 1.02-3.068 1.688-4.834 0.668-1.765 1.4-3.571 2.196-5.418 0.795-1.847 1.624-3.505 2.486-4.973 0.86-1.462 1.725-2.608 2.595-3.437 0.868-0.823 1.699-1.106 2.492-0.848v0c0.498 0.174 0.876 0.519 1.132 1.034 0.249 0.52 0.4 1.141 0.454 1.862 0.058 0.73 0.061 1.499 0.007 2.308-0.056 0.815-0.15 1.609-0.284 2.382-0.127 0.774-0.275 1.484-0.442 2.129-0.161 0.647-0.29 1.144-0.387 1.491v0c-0.234 0.834-0.484 1.664-0.75 2.49-0.264 0.819-0.546 1.637-0.845 2.453v0c1.011-0.79 2.222-1.329 3.633-1.619 1.413-0.296 2.745-0.268 3.996 0.083v0c1.598 0.448 2.682 1.227 3.25 2.335 0.568 1.108 0.847 2.36 0.837 3.756-0.011 1.396-0.205 2.827-0.582 4.292-0.375 1.46-0.725 2.767-1.048 3.923zM66.268 25.198v0c-0.108 0.59-0.271 1.353-0.489 2.29-0.226 0.941-0.536 1.84-0.931 2.696-0.394 0.856-0.893 1.568-1.498 2.136-0.612 0.566-1.36 0.768-2.246 0.606v0c-1.207-0.221-2.066-0.784-2.578-1.692-0.512-0.907-0.644-1.944-0.396-3.112v0c-1.209 0.721-2.524 1.223-3.945 1.505-1.421 0.282-2.816 0.298-4.187 0.048v0c-0.951-0.174-1.807-0.568-2.57-1.181-0.769-0.615-1.415-1.34-1.94-2.175-0.517-0.84-0.891-1.745-1.12-2.716-0.229-0.97-0.263-1.898-0.101-2.783v0c0.287-1.567 1.02-2.853 2.2-3.857 1.179-0.998 2.546-1.785 4.101-2.361 1.562-0.575 3.182-0.963 4.859-1.165 1.67-0.203 3.144-0.272 4.42-0.209v0c0.03-0.164 0.064-0.31 0.1-0.439 0.042-0.121 0.079-0.263 0.109-0.427v0c0.186-1.016 0.057-1.887-0.387-2.612-0.445-0.718-1.172-1.17-2.182-1.355v0c-0.82-0.15-1.55-0.141-2.19 0.026-0.634 0.169-1.245 0.379-1.833 0.631-0.587 0.245-1.168 0.457-1.743 0.637-0.57 0.187-1.182 0.221-1.839 0.101v0c-0.721-0.132-1.293-0.474-1.713-1.025-0.421-0.551-0.566-1.184-0.436-1.899v0c0.198-1.082 0.696-2.008 1.494-2.777 0.797-0.762 1.732-1.357 2.807-1.784 1.076-0.434 2.208-0.718 3.399-0.853 1.19-0.135 2.261-0.115 3.211 0.059v0c0.879 0.161 1.742 0.427 2.589 0.798 0.839 0.377 1.612 0.857 2.319 1.441 0.707 0.583 1.32 1.251 1.839 2.004 0.519 0.759 0.897 1.597 1.136 2.515v0c0.368 1.321 0.609 2.69 0.724 4.107 0.106 1.422 0.127 2.863 0.063 4.322-0.063 1.459-0.192 2.906-0.387 4.341-0.195 1.435-0.414 2.822-0.659 4.159zM58.714 22.201v0l0.462-3.362c-0.066-0.012-0.129-0.034-0.191-0.065-0.063-0.025-0.128-0.044-0.193-0.056v0c-0.426-0.078-0.977-0.07-1.651 0.023-0.674 0.094-1.342 0.277-2.002 0.549-0.659 0.266-1.233 0.591-1.723 0.976-0.497 0.384-0.79 0.818-0.879 1.304v0c-0.084 0.459 0.023 0.801 0.321 1.024 0.298 0.224 0.66 0.375 1.086 0.453v0c0.721 0.132 1.523 0.085 2.405-0.14 0.889-0.23 1.678-0.466 2.365-0.706zM83.082 35.388v0c-0.557-0.055-0.977-0.357-1.258-0.907-0.282-0.543-0.473-1.155-0.574-1.835-0.102-0.673-0.142-1.354-0.122-2.041 0.013-0.682 0.038-1.205 0.073-1.571v0c0.097-0.989 0.25-1.975 0.461-2.959 0.216-0.977 0.446-1.956 0.689-2.937 0.249-0.974 0.479-1.953 0.689-2.937 0.216-0.977 0.373-1.963 0.47-2.958v0c0.039-0.398 0.065-0.831 0.077-1.299 0.012-0.461-0.022-0.906-0.1-1.336-0.073-0.422-0.229-0.779-0.468-1.07-0.239-0.291-0.575-0.458-1.007-0.501v0c-0.299-0.029-0.651 0.181-1.056 0.63-0.412 0.442-0.807 0.953-1.185 1.532-0.372 0.58-0.693 1.165-0.965 1.755-0.279 0.596-0.434 1.043-0.463 1.341v0c-0.071 0.723-0.133 1.457-0.185 2.202-0.06 0.751-0.127 1.505-0.201 2.262v0l-0.281 2.876c-0.092 0.594-0.201 1.203-0.33 1.827-0.128 0.624-0.287 1.225-0.478 1.802v0c-0.158 0.587-0.363 1.143-0.615 1.668-0.246 0.525-0.548 0.981-0.907 1.368-0.352 0.381-0.757 0.683-1.214 0.906-0.457 0.223-0.984 0.306-1.582 0.247v0c-0.657-0.064-1.18-0.333-1.569-0.806-0.389-0.473-0.683-1.062-0.882-1.765-0.199-0.703-0.314-1.481-0.345-2.334-0.03-0.854-0.032-1.691-0.005-2.513 0.033-0.814 0.089-1.559 0.168-2.234 0.086-0.675 0.149-1.211 0.188-1.609v0l0.228-2.329c0.123-1.261 0.218-2.504 0.284-3.73 0.073-1.225 0.169-2.452 0.29-3.68v0c0.065-0.663 0.154-1.506 0.267-2.526 0.12-1.026 0.341-2.016 0.662-2.969 0.328-0.953 0.791-1.748 1.389-2.386 0.599-0.645 1.409-0.917 2.431-0.818v0c0.464 0.045 0.865 0.235 1.2 0.57 0.336 0.334 0.622 0.727 0.86 1.179 0.243 0.459 0.43 0.946 0.56 1.462 0.13 0.515 0.228 0.96 0.291 1.334v0c0.377-0.432 0.812-0.842 1.306-1.228 0.487-0.388 1.028-0.72 1.625-0.997 0.59-0.277 1.242-0.478 1.958-0.602 0.716-0.131 1.519-0.153 2.408-0.066v0c1.692 0.165 2.969 0.699 3.832 1.601 0.863 0.902 1.458 1.978 1.784 3.229 0.326 1.251 0.472 2.575 0.436 3.971-0.037 1.403-0.11 2.665-0.22 3.786v0c-0.055 0.564-0.187 1.395-0.395 2.494-0.208 1.098-0.484 2.307-0.827 3.627-0.35 1.319-0.773 2.661-1.267 4.025-0.503 1.371-1.059 2.613-1.671 3.725-0.611 1.106-1.29 1.991-2.038 2.655-0.748 0.664-1.554 0.953-2.416 0.869zM116.835 17.968v0c-0.015 1.693-0.058 3.39-0.127 5.089-0.062 1.693-0.168 3.385-0.316 5.077v0c-0.113 1.459-0.261 3.021-0.443 4.687-0.182 1.658-0.464 3.309-0.845 4.952-0.382 1.637-0.876 3.209-1.484 4.717-0.614 1.508-1.416 2.84-2.406 3.998-0.991 1.151-2.189 2.07-3.596 2.757-1.4 0.681-3.063 1.012-4.989 0.994v0c-0.9-0.008-1.905-0.157-3.016-0.447-1.111-0.29-2.154-0.706-3.129-1.249-0.975-0.542-1.799-1.207-2.472-1.993-0.673-0.786-1.005-1.696-0.995-2.729v0c0.007-0.76 0.287-1.464 0.84-2.112 0.553-0.642 1.262-0.958 2.129-0.951v0c0.533 0.005 1.039 0.103 1.517 0.294 0.478 0.184 0.96 0.395 1.444 0.633 0.478 0.238 0.939 0.449 1.384 0.633 0.445 0.191 0.901 0.288 1.368 0.293v0c1.233 0.011 2.266-0.289 3.098-0.902 0.839-0.606 1.513-1.38 2.022-2.322 0.502-0.942 0.885-1.969 1.148-3.079 0.257-1.111 0.44-2.163 0.549-3.155v0c-0.674 0.754-1.452 1.27-2.335 1.548-0.883 0.272-1.804 0.404-2.763 0.395v0c-1.76-0.016-3.254-0.336-4.482-0.961-1.221-0.631-2.21-1.49-2.966-2.577-0.757-1.087-1.309-2.345-1.656-3.776-0.354-1.43-0.523-2.975-0.507-4.635v0c0.009-1.033 0.127-2.196 0.352-3.486 0.225-1.298 0.561-2.608 1.006-3.931 0.446-1.329 0.997-2.621 1.655-3.875 0.658-1.261 1.425-2.367 2.301-3.319 0.875-0.959 1.856-1.73 2.941-2.314 1.085-0.59 2.275-0.879 3.568-0.867v0c1.267 0.012 2.387 0.389 3.36 1.131 0.973 0.736 1.537 1.771 1.691 3.105v0c0.366-0.697 0.853-1.382 1.459-2.056 0.606-0.674 1.343-1.008 2.21-1v0c0.46 0.004 0.848 0.238 1.163 0.701 0.309 0.47 0.55 1.078 0.724 1.826 0.18 0.748 0.316 1.566 0.407 2.454 0.092 0.881 0.151 1.745 0.176 2.592 0.026 0.847 0.035 1.62 0.029 2.32-0.006 0.693-0.011 1.207-0.014 1.54zM109.226 21.139v0c0.005-0.5-0.063-1.147-0.203-1.942-0.146-0.801-0.356-1.57-0.628-2.306-0.28-0.729-0.631-1.363-1.053-1.9-0.428-0.537-0.943-0.809-1.543-0.814v0c-0.767-0.007-1.442 0.253-2.027 0.781-0.585 0.528-1.081 1.163-1.487 1.907-0.407 0.743-0.721 1.537-0.942 2.381-0.221 0.845-0.334 1.567-0.34 2.167v0c-0.004 0.433 0.021 1.017 0.074 1.751 0.06 0.727 0.197 1.442 0.41 2.144 0.207 0.702 0.491 1.301 0.854 1.798 0.362 0.503 0.843 0.758 1.443 0.763v0c0.893 0.008 1.675-0.201 2.346-0.628 0.671-0.427 1.232-0.969 1.685-1.625 0.453-0.663 0.799-1.393 1.04-2.191 0.241-0.791 0.364-1.553 0.371-2.286zM141.563 24.201v0c0.09 1.123-0.178 2.251-0.803 3.385-0.625 1.133-1.442 2.165-2.452 3.095-1.009 0.93-2.108 1.703-3.296 2.32-1.182 0.609-2.288 0.955-3.318 1.037v0c-1.754 0.14-3.354-0.174-4.8-0.941-1.446-0.767-2.685-1.795-3.717-3.084-1.039-1.281-1.863-2.724-2.472-4.327-0.61-1.603-0.976-3.182-1.101-4.737v0c-0.132-1.655-0.041-3.444 0.273-5.369 0.308-1.924 0.87-3.721 1.687-5.391 0.817-1.664 1.904-3.081 3.261-4.253 1.357-1.178 3.029-1.847 5.017-2.006v0c1.13-0.09 2.221 0.013 3.275 0.31 1.061 0.303 1.998 0.77 2.81 1.401 0.82 0.637 1.501 1.418 2.043 2.345 0.542 0.92 0.86 1.978 0.956 3.174v0c0.124 1.555-0.092 3.037-0.648 4.446-0.556 1.415-1.339 2.662-2.35 3.738-1.017 1.084-2.212 1.989-3.585 2.714-1.373 0.725-2.805 1.18-4.295 1.367v0c0.21 0.953 0.654 1.62 1.333 2 0.685 0.373 1.473 0.524 2.364 0.453v0c0.665-0.053 1.299-0.268 1.905-0.643 0.598-0.382 1.18-0.806 1.744-1.273 0.565-0.46 1.124-0.879 1.675-1.258 0.552-0.378 1.126-0.592 1.725-0.639v0c0.665-0.053 1.277 0.115 1.836 0.505 0.566 0.39 0.877 0.933 0.933 1.631zM132.545 12.663v0c-0.034-0.425-0.186-0.861-0.455-1.308-0.27-0.447-0.654-0.65-1.152-0.611v0c-0.731 0.058-1.327 0.297-1.789 0.715-0.468 0.425-0.845 0.94-1.131 1.545-0.286 0.605-0.492 1.246-0.618 1.925-0.133 0.679-0.194 1.3-0.183 1.861v0c0.457-0.137 1.002-0.314 1.633-0.532 0.638-0.218 1.235-0.49 1.791-0.815 0.556-0.325 1.023-0.72 1.4-1.185 0.384-0.465 0.552-0.997 0.504-1.595zM155.521 3.287v0c0.147 0.955-0.064 1.713-0.632 2.272-0.569 0.553-1.217 1.098-1.944 1.634-0.728 0.53-1.368 1.124-1.922 1.783-0.553 0.658-0.744 1.544-0.572 2.658v0c0.091 0.593 0.308 1.082 0.65 1.468 0.348 0.378 0.753 0.71 1.216 0.997 0.461 0.28 0.967 0.563 1.517 0.849 0.55 0.286 1.065 0.629 1.544 1.028 0.485 0.391 0.917 0.894 1.294 1.511 0.378 0.616 0.64 1.399 0.786 2.347v0c0.213 1.384 0.069 2.795-0.431 4.235-0.501 1.433-1.223 2.751-2.164 3.955-0.941 1.204-2.052 2.224-3.334 3.062-1.288 0.839-2.603 1.361-3.947 1.568v0c-0.56 0.086-1.127 0.129-1.7 0.13-0.566 0.006-1.09-0.072-1.574-0.234-0.477-0.163-0.895-0.426-1.255-0.788-0.359-0.363-0.59-0.874-0.69-1.533v0c-0.142-0.922-0.071-1.665 0.213-2.228 0.284-0.563 0.684-1.036 1.199-1.419 0.508-0.382 1.072-0.704 1.692-0.968 0.614-0.263 1.182-0.559 1.705-0.89 0.515-0.335 0.924-0.725 1.226-1.17 0.302-0.451 0.397-1.039 0.286-1.763v0c-0.106-0.692-0.486-1.365-1.141-2.021-0.654-0.655-1.374-1.35-2.162-2.085-0.788-0.736-1.525-1.539-2.212-2.412-0.686-0.866-1.118-1.875-1.295-3.029v0c-0.217-1.41-0.131-2.759 0.258-4.046 0.389-1.287 0.999-2.45 1.831-3.489 0.833-1.032 1.836-1.898 3.01-2.597 1.166-0.705 2.438-1.164 3.816-1.376v0c0.527-0.081 1.052-0.111 1.574-0.09 0.529 0.02 1.011 0.125 1.445 0.314 0.426 0.184 0.796 0.461 1.109 0.831 0.308 0.378 0.509 0.876 0.604 1.496zM181.018 16.628v0c0.245 1.1 0.137 2.254-0.324 3.464-0.461 1.209-1.127 2.345-1.997 3.406-0.87 1.061-1.85 1.98-2.941 2.755-1.086 0.768-2.133 1.264-3.142 1.489v0c-1.718 0.383-3.346 0.295-4.884-0.264-1.538-0.559-2.908-1.404-4.11-2.536-1.207-1.124-2.224-2.438-3.05-3.941-0.827-1.503-1.41-3.016-1.749-4.539v0c-0.361-1.62-0.52-3.405-0.476-5.354 0.037-1.948 0.344-3.806 0.919-5.574 0.577-1.761 1.457-3.316 2.639-4.665 1.18-1.356 2.743-2.25 4.688-2.684v0c1.106-0.246 2.202-0.296 3.287-0.149 1.093 0.153 2.085 0.485 2.978 0.997 0.901 0.516 1.684 1.196 2.349 2.037 0.664 0.836 1.127 1.839 1.388 3.011v0c0.339 1.523 0.331 3.02-0.023 4.492-0.353 1.479-0.956 2.822-1.807 4.03-0.856 1.215-1.914 2.277-3.173 3.186-1.259 0.909-2.613 1.559-4.063 1.95v0c0.34 0.915 0.873 1.513 1.598 1.796 0.73 0.274 1.532 0.314 2.404 0.12v0c0.651-0.145 1.25-0.446 1.797-0.903 0.539-0.462 1.056-0.963 1.55-1.503 0.496-0.534 0.99-1.027 1.484-1.478 0.494-0.452 1.033-0.743 1.619-0.873v0c0.651-0.145 1.28-0.063 1.889 0.245 0.615 0.307 0.998 0.802 1.15 1.485zM170.483 6.456v0c-0.093-0.416-0.304-0.827-0.633-1.232-0.329-0.405-0.738-0.553-1.226-0.444v0c-0.716 0.16-1.273 0.478-1.672 0.957-0.404 0.486-0.706 1.049-0.904 1.687-0.199 0.639-0.314 1.303-0.345 1.993-0.037 0.691-0.011 1.314 0.078 1.868v0c0.434-0.199 0.948-0.45 1.543-0.754 0.601-0.305 1.155-0.657 1.66-1.056 0.505-0.399 0.912-0.856 1.222-1.369 0.316-0.514 0.408-1.064 0.277-1.65zM197.567 22.677v0c-2.255 0.697-4.1 0.946-5.536 0.748-1.436-0.198-2.629-0.74-3.58-1.625-0.953-0.892-1.728-2.079-2.325-3.562-0.6-1.489-1.189-3.17-1.768-5.043v0c-0.461-1.49-0.877-3.005-1.248-4.544-0.369-1.533-0.724-3.188-1.065-4.967v0c-0.446 0.138-0.793 0.256-1.042 0.353-0.251 0.091-0.456 0.162-0.615 0.211v0c-1.013 0.313-1.96 0.365-2.84 0.156-0.883-0.215-1.467-0.785-1.753-1.708v0c-0.177-0.573-0.12-1.146 0.17-1.717 0.289-0.578 0.719-1.129 1.289-1.655 0.57-0.525 1.214-1.003 1.933-1.434 0.718-0.431 1.414-0.786 2.089-1.065v0c-0.274-0.885-0.514-1.889-0.722-3.011-0.205-1.116-0.284-2.194-0.236-3.235 0.042-1.039 0.251-1.965 0.627-2.779 0.37-0.812 1.001-1.356 1.893-1.631v0c0.51-0.158 1.009-0.144 1.498 0.039 0.487 0.177 0.929 0.456 1.326 0.835 0.399 0.386 0.749 0.843 1.052 1.371 0.305 0.534 0.541 1.071 0.708 1.613v0c0.195 0.631 0.348 1.295 0.459 1.993 0.111 0.698 0.191 1.577 0.239 2.637v0c0.522-0.231 0.876-0.382 1.064-0.454 0.185-0.078 0.357-0.142 0.516-0.191v0c0.535-0.165 1.113-0.292 1.736-0.38 0.616-0.086 1.203-0.093 1.762-0.021 0.559 0.071 1.054 0.239 1.485 0.504 0.433 0.271 0.728 0.661 0.885 1.17v0c0.175 0.567 0.102 1.144-0.218 1.732-0.321 0.588-0.782 1.149-1.384 1.684-0.602 0.535-1.272 1.011-2.009 1.427-0.743 0.418-1.455 0.767-2.136 1.047v0c0.213 1.365 0.45 2.607 0.713 3.726 0.262 1.119 0.517 2.248 0.763 3.386v0c0.104 0.561 0.216 1.127 0.336 1.696 0.127 0.568 0.279 1.138 0.456 1.712v0c0.128 0.414 0.294 0.893 0.497 1.437 0.203 0.544 0.479 1.042 0.828 1.492 0.342 0.452 0.776 0.796 1.302 1.032 0.528 0.241 1.159 0.249 1.891 0.022v0c0.439-0.136 0.885-0.319 1.338-0.549 0.454-0.224 0.92-0.41 1.397-0.558v0c0.822-0.254 1.505-0.155 2.05 0.298 0.54 0.461 0.948 1.137 1.224 2.029v0c0.205 0.662 0.186 1.303-0.055 1.922-0.25 0.614-0.628 1.164-1.134 1.649-0.511 0.493-1.114 0.934-1.81 1.323-0.698 0.383-1.381 0.678-2.05 0.885zM209.033-12.345v0c0.34 0.905 0.29 1.689-0.15 2.353-0.443 0.658-0.965 1.325-1.567 2-0.603 0.669-1.108 1.382-1.513 2.14-0.406 0.758-0.41 1.664-0.014 2.719v0c0.211 0.562 0.524 0.996 0.939 1.303 0.419 0.298 0.883 0.54 1.395 0.725 0.509 0.179 1.062 0.352 1.659 0.519 0.597 0.167 1.171 0.396 1.722 0.688 0.555 0.283 1.081 0.687 1.578 1.212 0.497 0.525 0.914 1.237 1.252 2.136v0c0.493 1.31 0.643 2.721 0.449 4.233-0.196 1.505-0.631 2.944-1.304 4.315-0.674 1.372-1.551 2.599-2.632 3.683-1.087 1.086-2.268 1.868-3.54 2.346v0c-0.53 0.2-1.076 0.358-1.637 0.477-0.552 0.122-1.082 0.154-1.588 0.095-0.5-0.061-0.963-0.232-1.39-0.513-0.426-0.281-0.757-0.734-0.992-1.358v0c-0.329-0.874-0.412-1.615-0.249-2.225 0.162-0.61 0.456-1.155 0.881-1.634 0.419-0.478 0.904-0.91 1.457-1.296 0.547-0.384 1.042-0.791 1.485-1.221 0.435-0.434 0.755-0.9 0.959-1.398 0.202-0.503 0.174-1.098-0.083-1.785v0c-0.246-0.655-0.757-1.236-1.532-1.742-0.775-0.506-1.623-1.038-2.545-1.596-0.922-0.558-1.809-1.193-2.661-1.905-0.85-0.706-1.48-1.605-1.891-2.697v0c-0.502-1.335-0.696-2.673-0.58-4.013 0.116-1.34 0.474-2.603 1.075-3.791 0.603-1.181 1.406-2.235 2.411-3.161 0.996-0.93 2.146-1.641 3.45-2.132v0c0.499-0.188 1.007-0.325 1.523-0.412 0.522-0.089 1.015-0.086 1.478 0.01 0.455 0.092 0.874 0.287 1.256 0.585 0.379 0.306 0.678 0.753 0.899 1.34z" opacity="1" transform="matrix(1,0,0,1,0,0)" fill="#ff4057" class="wordmark-text-0" data-fill-palette-color="primary" id="text-0"/>
                </svg>
              </g>
            </svg>
          </g>
        </svg>
      </g>
    </svg>
  </g>
</svg>